<svg id="Layer_35" enable-background="new 0 0 64 64" height="512" viewBox="0 0 64 64" width="512" xmlns="http://www.w3.org/2000/svg" xmlns:xlink="http://www.w3.org/1999/xlink"><linearGradient id="SVGID_1_" gradientUnits="userSpaceOnUse" x1="32" x2="32" y1="63" y2="1"><stop offset="0" stop-color="#9f2fff"/><stop offset="1" stop-color="#0bb1d3"/></linearGradient><path d="m49 50.414v-17l9.707-9.707.379-.379c.212-.211.493-.328.793-.328.618 0 1.121.503 1.121 1.121 0 .3-.117.581-.328.793l-8.379 8.379 1.414 1.414 8.379-8.379c.589-.589.914-1.373.914-2.207 0-1.271-.766-2.362-1.858-2.849l.323-.323c.99-.99 1.536-2.307 1.536-3.707-.001-2.89-2.353-5.242-5.244-5.242-1.4 0-2.717.545-3.707 1.536l-5.05 5.05v-17.586h-48v62h35.414zm-12 9.172v-8.586h8.586zm0-29v-17.586h6v11.586zm6-19.586h-12v-4h12zm-14 0h-14v-4h14zm-16 0h-6v-4h6zm-6 2h6v20h-6zm8 0h6v20h-6zm8 0h6v20h-6zm8 0h4v19.586l-.414.414h-3.586zm.707 27.122c.076-.53.239-1.046.477-1.523l4.218 4.218c-.478.238-.993.401-1.523.477l-3.7.528zm6.293 1.464-4.586-4.586 16.586-16.586 4.586 4.586zm17.464-26.636c.613-.612 1.427-.95 2.293-.95 1.788 0 3.243 1.455 3.243 3.243 0 .866-.337 1.68-.95 2.293l-2.378 2.378-.379.379-1.293 1.293-4.586-4.586zm-52.464-11.95h44v17.586l-2 2v-17.586h-40v30h27.586l-.879.879c-1.064 1.063-1.767 2.47-1.979 3.959l-.906 6.34 6.34-.906c1.49-.212 2.896-.916 3.959-1.979l7.879-7.879v13.586h-12v12h-32zm12 42v1c0 .551.449 1 1 1 1.654 0 3 1.346 3 3v3h-2v2h-2v-2.184c-1.161-.414-2-1.514-2-2.816h2c0 .551.449 1 1 1h1v-1c0-.551-.449-1-1-1-1.654 0-3-1.346-3-3v-3h2v-2h2v2.184c1.161.414 2 1.514 2 2.816h-2c0-.551-.449-1-1-1zm-4 3c0 .552-.448 1-1 1s-1-.448-1-1 .448-1 1-1 1 .448 1 1zm11-1c.552 0 1 .448 1 1s-.448 1-1 1-1-.448-1-1 .448-1 1-1zm-6-10c-6.065 0-11 4.935-11 11s4.935 11 11 11 11-4.935 11-11-4.935-11-11-11zm0 20c-4.962 0-9-4.038-9-9s4.038-9 9-9 9 4.038 9 9-4.038 9-9 9zm15 0h2v2h-2zm0-4h2v2h-2zm2-4v2h-2v-2z" fill="url(#SVGID_1_)"/></svg>