<svg id="Layer_1" height="512" viewBox="0 0 512 512" width="512" xmlns="http://www.w3.org/2000/svg" xmlns:xlink="http://www.w3.org/1999/xlink" data-name="Layer 1"><linearGradient id="linear-gradient" gradientUnits="userSpaceOnUse" x1="256" x2="256" y1="28" y2="482.533"><stop offset="0" stop-color="#00efd1"/><stop offset="1" stop-color="#00acea"/></linearGradient><g fill="url(#linear-gradient)"><path d="m256 14.641a241.36 241.36 0 0 0 -170.667 412.026 241.36 241.36 0 0 0 341.334-341.334 239.782 239.782 0 0 0 -170.667-70.692zm162.182 79.177q3.522 3.523 6.862 7.179a227.244 227.244 0 0 1 -48.639 40.403c-18.123-47.67-48.067-86.533-87.536-112.426a227.64 227.64 0 0 1 129.313 64.844zm-34.907 135.048a129.916 129.916 0 0 0 -31.683-61.061q9.312-4.008 18.258-8.779a305.382 305.382 0 0 1 13.425 69.84zm-121.275-201.499c47.937 23.827 83.752 66.077 103.86 120.152a225.9 225.9 0 0 1 -23.576 11.162 129.581 129.581 0 0 0 -80.284-32.667zm-115.774 119.921c20.124-53.965 55.906-96.127 103.774-119.921v98.647a129.587 129.587 0 0 0 -80.078 32.486 228.01 228.01 0 0 1 -23.696-11.212zm14.363 20.323a129.908 129.908 0 0 0 -31.864 61.255 305.241 305.241 0 0 1 13.5-70.08q8.985 4.805 18.364 8.825zm-66.771-73.793a227.64 227.64 0 0 1 129.313-64.844c-39.408 25.854-69.321 64.637-87.452 112.21a229.867 229.867 0 0 1 -48.7-40.206q3.335-3.638 6.839-7.16zm-14.792 16.263a242.042 242.042 0 0 0 52.553 42.637c-9.834 29.638-15.287 62.37-15.848 97.282h-89.011a227.462 227.462 0 0 1 52.306-139.919zm81.563 234.308q-9.364 4.029-18.365 8.828a305.286 305.286 0 0 1 -13.5-70.089 129.909 129.909 0 0 0 31.865 61.261zm-81.563 57.53a227.462 227.462 0 0 1 -52.306-139.919h89.011c.56 34.911 6.011 67.643 15.845 97.281a242.054 242.054 0 0 0 -52.55 42.638zm14.792 16.263q-3.513-3.514-6.844-7.16a229.791 229.791 0 0 1 48.7-40.2c18.127 47.565 48.032 86.347 87.431 112.205a227.637 227.637 0 0 1 -129.287-64.845zm156.182 66.465c-47.87-23.8-83.653-65.967-103.777-119.934a228.35 228.35 0 0 1 23.7-11.212 129.583 129.583 0 0 0 80.077 32.485zm-112.13-228.647a118.13 118.13 0 1 1 118.13 118.13 118.264 118.264 0 0 1 -118.13-118.13zm245.407 27.128a305.444 305.444 0 0 1 -13.424 69.846q-8.931-4.782-18.26-8.781a129.913 129.913 0 0 0 31.684-61.065zm-121.277 102.858a129.588 129.588 0 0 0 80.286-32.668 225.814 225.814 0 0 1 23.577 11.163c-20.108 54.077-55.924 96.332-103.863 120.166zm156.182 32.2a227.637 227.637 0 0 1 -129.29 64.841c39.46-25.9 69.4-64.759 87.516-112.426a227.228 227.228 0 0 1 48.636 40.399q-3.35 3.65-6.862 7.182zm14.818-16.292a239.4 239.4 0 0 0 -52.5-42.838c9.786-29.578 15.212-62.234 15.77-97.056h89.01a227.467 227.467 0 0 1 -52.28 139.894zm0-291.788a227.463 227.463 0 0 1 52.28 139.894h-89.011c-.56-34.823-5.986-67.478-15.773-97.056a239.417 239.417 0 0 0 52.504-42.838z"/><path d="m256 201.817a26.176 26.176 0 0 1 26.146 26.146 6 6 0 1 0 12 0 38.2 38.2 0 0 0 -32.146-37.67v-11.293a6 6 0 0 0 -12 0v11.293a38.145 38.145 0 0 0 6 75.816 26.147 26.147 0 1 1 -26.146 26.147 6 6 0 0 0 -12 0 38.2 38.2 0 0 0 31.146 37.491v14.253a6 6 0 0 0 12 0v-13.936a38.142 38.142 0 0 0 -5-75.955 26.146 26.146 0 1 1 0-52.292z"/></g></svg>