<svg height="511pt" viewBox="0 -48 511.998 511" width="511pt" xmlns="http://www.w3.org/2000/svg"><path d="m480.453125 184.871094h-88.183594c-4.140625 0-7.5 3.359375-7.5 7.5s3.359375 7.5 7.5 7.5h88.183594c9.125 0 16.546875 7.425781 16.546875 16.546875v80.679687h-192.902344c-4.144531 0-7.5 3.355469-7.5 7.5 0 4.140625 3.355469 7.5 7.5 7.5h192.902344v17.0625h-241.515625v-17.0625h16.546875c4.140625 0 7.5-3.359375 7.5-7.5 0-4.144531-3.359375-7.5-7.5-7.5h-16.546875v-17.066406h80.675781c17.398438 0 31.550782-14.152344 31.550782-31.546875v-128.257813c0-17.398437-14.152344-31.546874-31.550782-31.546874h-208.417968c-17.394532 0-31.546876 14.152343-31.546876 31.546874v128.257813c0 17.394531 14.152344 31.546875 31.546876 31.546875h80.679687v96.710938c0 13.546874-11.023437 24.566406-24.566406 24.566406h-144.292969c-13.542969-.003906-24.5625-11.023438-24.5625-24.566406v-336.679688c0-13.542969 11.019531-24.5625 24.5625-24.5625h8.535156v8.53125c0 12.976562 10.554688 23.53125 23.53125 23.53125h80.160156c12.976563 0 23.53125-10.554688 23.53125-23.53125v-8.53125h8.535157c13.542969 0 24.5625 11.019531 24.5625 24.5625v24.046875c0 4.144531 3.359375 7.5 7.5 7.5s7.5-3.355469 7.5-7.5v-24.046875c0-21.816406-17.75-39.5625-39.5625-39.5625h-144.292969c-21.8125 0-39.5625 17.746094-39.5625 39.5625v336.679688c0 21.816406 17.75 39.5625 39.5625 39.5625h144.292969c21.816406 0 39.5625-17.75 39.5625-39.5625v-96.710938h17.066406v64.644531c0 17.394531 14.152344 31.550781 31.546875 31.550781h208.417969c17.398437 0 31.546875-14.15625 31.546875-31.550781v-128.257812c.003906-17.394531-14.148438-31.546875-31.542969-31.546875zm-320.128906-160.839844c0 4.707031-3.828125 8.53125-8.535157 8.53125h-80.160156c-4.703125 0-8.53125-3.828125-8.53125-8.53125v-8.53125h97.226563zm-49.132813 224.453125v-128.257813c0-9.125 7.425782-16.546874 16.550782-16.546874h208.417968c9.125 0 16.546875 7.421874 16.546875 16.546874v128.257813c0 9.125-7.421875 16.546875-16.546875 16.546875h-208.417968c-9.125 0-16.550782-7.421875-16.550782-16.546875zm369.261719 112.742187h-208.421875c-9.125 0-16.546875-7.425781-16.546875-16.550781v-.515625h241.515625v.515625c0 9.125-7.421875 16.550781-16.546875 16.550781zm0 0"/><path d="m215.917969 216.933594h-24.046875c-4.140625 0-7.5 3.359375-7.5 7.5 0 4.144531 3.359375 7.5 7.5 7.5h24.046875c4.144531 0 7.5-3.355469 7.5-7.5 0-4.140625-3.355469-7.5-7.5-7.5zm0 0"/><path d="m272.03125 231.933594c4.144531 0 7.5-3.355469 7.5-7.5 0-4.140625-3.355469-7.5-7.5-7.5h-24.046875c-4.140625 0-7.5 3.359375-7.5 7.5 0 4.144531 3.359375 7.5 7.5 7.5zm0 0"/><path d="m328.144531 216.933594h-24.046875c-4.144531 0-7.5 3.359375-7.5 7.5 0 4.144531 3.355469 7.5 7.5 7.5h24.046875c4.140625 0 7.5-3.355469 7.5-7.5 0-4.140625-3.359375-7.5-7.5-7.5zm0 0"/><path d="m159.808594 216.933594h-24.050782c-4.140624 0-7.5 3.359375-7.5 7.5 0 4.144531 3.359376 7.5 7.5 7.5h24.050782c4.140625 0 7.5-3.355469 7.5-7.5 0-4.140625-3.359375-7.5-7.5-7.5zm0 0"/><path d="m167.824219 144.789062h-24.050781c-8.554688 0-15.515626 6.960938-15.515626 15.515626v16.035156c0 8.554687 6.960938 15.515625 15.515626 15.515625h24.050781c8.554687 0 15.515625-6.960938 15.515625-15.515625v-16.035156c0-8.554688-6.960938-15.515626-15.515625-15.515626zm.515625 31.550782c0 .285156-.230469.515625-.515625.515625h-24.050781c-.285157 0-.515626-.230469-.515626-.515625v-16.03125c0-.285156.230469-.519532.515626-.519532h24.050781c.285156 0 .515625.234376.515625.519532zm0 0"/><path d="m280.046875 191.855469c6.191406 0 11.828125-2.40625 16.03125-6.328125 4.207031 3.921875 9.84375 6.328125 16.035156 6.328125 12.976563 0 23.53125-10.558594 23.53125-23.53125 0-12.976563-10.558593-23.535157-23.53125-23.535157-6.191406 0-11.828125 2.40625-16.035156 6.328126-4.203125-3.921876-9.839844-6.328126-16.03125-6.328126-12.976563 0-23.53125 10.558594-23.53125 23.535157 0 12.972656 10.558594 23.53125 23.53125 23.53125zm32.066406-32.066407c4.703125 0 8.53125 3.828126 8.53125 8.53125 0 4.707032-3.828125 8.535157-8.53125 8.535157s-8.53125-3.828125-8.53125-8.535157c0-4.703124 3.824219-8.53125 8.53125-8.53125zm-32.066406 0c4.707031 0 8.53125 3.828126 8.53125 8.53125 0 4.707032-3.824219 8.535157-8.53125 8.535157-4.703125 0-8.53125-3.828125-8.53125-8.535157 0-4.703124 3.828125-8.53125 8.53125-8.53125zm0 0"/><path d="m472.4375 272.015625c4.140625 0 7.5-3.359375 7.5-7.5s-3.359375-7.5-7.5-7.5h-80.164062c-4.140626 0-7.5 3.359375-7.5 7.5s3.359374 7.5 7.5 7.5zm0 0"/></svg>