<svg id="Layer_5" enable-background="new 0 0 64 64" height="512" viewBox="0 0 64 64" width="512" xmlns="http://www.w3.org/2000/svg"><path d="m32 19c-1.103 0-2-.897-2-2h-2c0 1.858 1.28 3.411 3 3.858v2.142h2v-2h3v-4c0-2.206-1.794-4-4-4-1.103 0-2-.897-2-2v-2h2c1.103 0 2 .897 2 2h2c0-1.858-1.28-3.411-3-3.858v-2.142h-2v2h-3v4c0 2.206 1.794 4 4 4 1.103 0 2 .897 2 2v2z"/><circle cx="24" cy="14" r="1"/><circle cx="40" cy="14" r="1"/><path d="m7 34c0 .697.035 1.403.104 2.099l1.99-.197c-.062-.631-.094-1.27-.094-1.902z"/><path d="m16.179 16.203c-5.153 3.899-8.46 9.62-9.073 15.697l1.99.2c.557-5.525 3.579-10.738 8.29-14.303z"/><path d="m56.575 29.8c-.143-.701-.325-1.407-.541-2.098l-1.909.596c.196.627.36 1.267.49 1.902z"/><path d="m56.895 31.9-1.99.2c.063.631.095 1.271.095 1.9 0 4.071-1.281 8.021-3.705 11.419l1.628 1.162c2.667-3.74 4.077-8.091 4.077-12.581 0-.696-.036-1.402-.105-2.1z"/><path d="m38 47c-1.682 0-3 1.757-3 4s1.318 4 3 4 3-1.757 3-4-1.318-4-3-4zm0 6c-.408 0-1-.779-1-2s.592-2 1-2 1 .779 1 2-.592 2-1 2z"/><path d="m26 47c-1.682 0-3 1.757-3 4s1.318 4 3 4 3-1.757 3-4-1.318-4-3-4zm0 6c-.408 0-1-.779-1-2s.592-2 1-2 1 .779 1 2-.592 2-1 2z"/><path d="m44 31c-2.206 0-4 1.794-4 4s1.794 4 4 4 4-1.794 4-4-1.794-4-4-4zm0 6c-1.103 0-2-.897-2-2s.897-2 2-2 2 .897 2 2-.897 2-2 2z"/><path d="m20 31c-2.206 0-4 1.794-4 4s1.794 4 4 4 4-1.794 4-4-1.794-4-4-4zm0 6c-1.103 0-2-.897-2-2s.897-2 2-2 2 .897 2 2-.897 2-2 2z"/><path d="m56.397 19.428 6.95-8.495-.64-.64c-.134-.135-3.366-3.293-9.707-3.293-4.294 0-7.224.827-9.141 1.699-2.034-4.53-6.579-7.699-11.859-7.699s-9.825 3.168-11.859 7.699c-1.917-.872-4.847-1.699-9.141-1.699-6.341 0-9.573 3.158-9.707 3.293l-.64.64 6.95 8.495c-2.942 4.267-4.603 9.299-4.603 14.572 0 6.697 2.627 13.062 7.419 18.026-.921 1.164-1.419 2.544-1.419 3.974 0 3.859 3.589 7 8 7 2.326 0 4.514-.887 6.024-2.409 2.506 1.506 5.608 2.409 8.976 2.409s6.47-.903 8.976-2.409c1.51 1.522 3.698 2.409 6.024 2.409 4.411 0 8-3.141 8-7 0-1.43-.498-2.81-1.418-3.974 4.791-4.964 7.418-11.33 7.418-18.026 0-5.273-1.661-10.305-4.603-14.572zm4.186-8.276-5.418 6.622c-2.518-3.116-5.767-5.735-9.577-7.619 1.629-.596 4.037-1.155 7.412-1.155 3.892 0 6.434 1.36 7.583 2.152zm-17.583 10.848v2c0 .551-.449 1-1 1h-3.103c1.514-.953 2.823-2.2 3.833-3.673.164.178.27.412.27.673zm-11-19c6.065 0 11 4.935 11 11s-4.935 11-11 11-11-4.935-11-11 4.935-11 11-11zm-11 19c0-.261.106-.495.271-.673 1.009 1.474 2.319 2.72 3.833 3.673h-3.104c-.551 0-1-.449-1-1zm-17.583-10.847c1.152-.794 3.692-2.153 7.583-2.153 3.375 0 5.783.559 7.412 1.156-3.81 1.884-7.059 4.503-9.577 7.619zm15.583 39.847c0-5.514 5.832-10 13-10s13 4.486 13 10-5.832 10-13 10-13-4.486-13-10zm32.505.275-.748.725.754.718c.96.916 1.489 2.081 1.489 3.282 0 2.757-2.691 5-6 5-1.66 0-3.21-.581-4.334-1.575 2.677-2.169 4.334-5.144 4.334-8.425 0-6.617-6.729-12-15-12s-15 5.383-15 12c0 3.281 1.657 6.256 4.334 8.425-1.124.994-2.674 1.575-4.334 1.575-3.309 0-6-2.243-6-5 0-1.201.529-2.366 1.49-3.282l.754-.718-.749-.725c-4.833-4.677-7.495-10.812-7.495-17.275 0-9.21 5.5-17.648 14.169-21.99-.101.651-.169 1.312-.169 1.99 0 1.991.463 3.872 1.267 5.56-.764.544-1.267 1.433-1.267 2.44v2c0 1.654 1.346 3 3 3h20c1.654 0 3-1.346 3-3v-2c0-1.007-.503-1.896-1.267-2.44.804-1.688 1.267-3.569 1.267-5.56 0-.678-.068-1.339-.169-1.99 8.669 4.342 14.169 12.78 14.169 21.99 0 6.463-2.662 12.598-7.495 17.275z"/></svg>