<svg height="512" viewBox="0 0 64 64" width="512" xmlns="http://www.w3.org/2000/svg"><path d="m59 15h-3v-7a1 1 0 0 0 -1.8-.6l-2.308 3.078-3.185-3.185a1 1 0 0 0 -1.414 0l-3.293 3.293-3.293-3.293a1 1 0 0 0 -1.4-.01l-3.315 3.217-3.292-3.215a1 1 0 0 0 -1.406.008l-3.294 3.293-3.293-3.293-5-5a1 1 0 0 0 -.707-.293h-14a3 3 0 0 0 -3 3v54a3 3 0 0 0 3 3h54a3 3 0 0 0 3-3v-41a3 3 0 0 0 -3-3zm0 2a1 1 0 0 1 1 1v13h-4v-14zm-31.707-4.293a1 1 0 0 0 1.414 0l3.3-3.3 3.284 3.209a1 1 0 0 0 1.395 0l3.304-3.216 3.3 3.3a1 1 0 0 0 1.414 0l3.296-3.286 3.293 3.293a1.017 1.017 0 0 0 .778.291 1 1 0 0 0 .729-.4l1.2-1.598v20h-21.586l-12.707-12.707a1 1 0 0 0 -.707-.293h-1v-7l1.2 1.6a1 1 0 0 0 1.507.107l3.293-3.293zm-22.293-8.707h13.586l4 4-2.478 2.478-2.308-3.078a1 1 0 0 0 -1.8.6v10h-12v-13a1 1 0 0 1 1-1zm55 55a1 1 0 0 1 -1 1h-54a1 1 0 0 1 -1-1v-39h14.586l12.707 12.707a1 1 0 0 0 .707.293h28z"/><path d="m23 44h-16a1 1 0 0 0 -1 1v12a1 1 0 0 0 1 1h16a1 1 0 0 0 1-1v-12a1 1 0 0 0 -1-1zm-1 12h-14v-10h14z"/><path d="m10 48h2v2h-2z"/><path d="m14 48h6v2h-6z"/><path d="m10 52h10v2h-10z"/><path d="m38 25h-2a1 1 0 0 1 -1-1h-2a3 3 0 0 0 3 3v2h2v-2a3 3 0 0 0 0-6h-2a1 1 0 0 1 0-2h2a1 1 0 0 1 1 1h2a3 3 0 0 0 -3-3v-2h-2v2a3 3 0 0 0 0 6h2a1 1 0 0 1 0 2z"/></svg>